<?xml version="1.0" encoding="UTF-8" standalone="no"?>
<!DOCTYPE svg PUBLIC "-//W3C//DTD SVG 1.1//EN"
 "http://www.w3.org/Graphics/SVG/1.1/DTD/svg11.dtd">
<!-- Generated by graphviz version 2.30.1 (20201013.1554)
 -->
<!-- Title: snakemake_dag Pages: 1 -->
<svg width="255pt" height="770pt"
 viewBox="0.00 0.00 255.00 770.00" xmlns="http://www.w3.org/2000/svg" xmlns:xlink="http://www.w3.org/1999/xlink">
<g id="graph0" class="graph" transform="scale(1 1) rotate(0) translate(4 766)">
<title>snakemake_dag</title>
<polygon fill="white" stroke="white" points="-4,5 -4,-766 252,-766 252,5 -4,5"/>
<!-- 0 -->
<g id="node1" class="node"><title>0</title>
<path fill="none" stroke="#5692d8" stroke-width="2" d="M100,-36C100,-36 32,-36 32,-36 26,-36 20,-30 20,-24 20,-24 20,-12 20,-12 20,-6 26,-0 32,-0 32,-0 100,-0 100,-0 106,-0 112,-6 112,-12 112,-12 112,-24 112,-24 112,-30 106,-36 100,-36"/>
<text text-anchor="middle" x="66" y="-15.5" font-family="sans" font-size="10.00">idt_order_sheet</text>
</g>
<!-- 1 -->
<g id="node2" class="node"><title>1</title>
<path fill="none" stroke="#9fd856" stroke-width="2" d="M112,-108C112,-108 20,-108 20,-108 14,-108 8,-102 8,-96 8,-96 8,-84 8,-84 8,-78 14,-72 20,-72 20,-72 112,-72 112,-72 118,-72 124,-78 124,-84 124,-84 124,-96 124,-96 124,-102 118,-108 112,-108"/>
<text text-anchor="middle" x="66" y="-87.5" font-family="sans" font-size="10.00">merge_final_outputs</text>
</g>
<!-- 1&#45;&gt;0 -->
<g id="edge1" class="edge"><title>1&#45;&gt;0</title>
<path fill="none" stroke="grey" stroke-width="2" d="M66,-71.6966C66,-63.9827 66,-54.7125 66,-46.1124"/>
<polygon fill="grey" stroke="grey" points="69.5001,-46.1043 66,-36.1043 62.5001,-46.1044 69.5001,-46.1043"/>
</g>
<!-- 2 -->
<g id="node3" class="node"><title>2</title>
<path fill="none" stroke="#56d8a2" stroke-width="2" d="M98.25,-180C98.25,-180 33.75,-180 33.75,-180 27.75,-180 21.75,-174 21.75,-168 21.75,-168 21.75,-156 21.75,-156 21.75,-150 27.75,-144 33.75,-144 33.75,-144 98.25,-144 98.25,-144 104.25,-144 110.25,-150 110.25,-156 110.25,-156 110.25,-168 110.25,-168 110.25,-174 104.25,-180 98.25,-180"/>
<text text-anchor="middle" x="66" y="-159.5" font-family="sans" font-size="10.00">filter_crosstalk</text>
</g>
<!-- 2&#45;&gt;1 -->
<g id="edge2" class="edge"><title>2&#45;&gt;1</title>
<path fill="none" stroke="grey" stroke-width="2" d="M66,-143.697C66,-135.983 66,-126.712 66,-118.112"/>
<polygon fill="grey" stroke="grey" points="69.5001,-118.104 66,-108.104 62.5001,-118.104 69.5001,-118.104"/>
</g>
<!-- 3 -->
<g id="node4" class="node"><title>3</title>
<path fill="none" stroke="#56b1d8" stroke-width="2" d="M150.25,-252C150.25,-252 65.75,-252 65.75,-252 59.75,-252 53.75,-246 53.75,-240 53.75,-240 53.75,-228 53.75,-228 53.75,-222 59.75,-216 65.75,-216 65.75,-216 150.25,-216 150.25,-216 156.25,-216 162.25,-222 162.25,-228 162.25,-228 162.25,-240 162.25,-240 162.25,-246 156.25,-252 150.25,-252"/>
<text text-anchor="middle" x="108" y="-231.5" font-family="sans" font-size="10.00">evaluate_crosstalk</text>
</g>
<!-- 3&#45;&gt;2 -->
<g id="edge3" class="edge"><title>3&#45;&gt;2</title>
<path fill="none" stroke="grey" stroke-width="2" d="M97.618,-215.697C92.7353,-207.559 86.8134,-197.689 81.4208,-188.701"/>
<polygon fill="grey" stroke="grey" points="84.4088,-186.879 76.2626,-180.104 78.4064,-190.48 84.4088,-186.879"/>
</g>
<!-- 4 -->
<g id="node5" class="node"><title>4</title>
<path fill="none" stroke="#d8d356" stroke-width="2" d="M120.25,-324C120.25,-324 11.75,-324 11.75,-324 5.75,-324 -0.25,-318 -0.25,-312 -0.25,-312 -0.25,-300 -0.25,-300 -0.25,-294 5.75,-288 11.75,-288 11.75,-288 120.25,-288 120.25,-288 126.25,-288 132.25,-294 132.25,-300 132.25,-300 132.25,-312 132.25,-312 132.25,-318 126.25,-324 120.25,-324"/>
<text text-anchor="middle" x="66" y="-303.5" font-family="sans" font-size="10.00">select_flanking_spacers</text>
</g>
<!-- 4&#45;&gt;2 -->
<g id="edge4" class="edge"><title>4&#45;&gt;2</title>
<path fill="none" stroke="grey" stroke-width="2" d="M56.8694,-287.88C51.9925,-277.756 46.4925,-264.506 44,-252 40.8727,-236.309 40.8727,-231.691 44,-216 45.7915,-207.011 49.1367,-197.638 52.6874,-189.318"/>
<polygon fill="grey" stroke="grey" points="55.9164,-190.672 56.8694,-180.12 49.5441,-187.775 55.9164,-190.672"/>
</g>
<!-- 4&#45;&gt;3 -->
<g id="edge5" class="edge"><title>4&#45;&gt;3</title>
<path fill="none" stroke="grey" stroke-width="2" d="M76.382,-287.697C81.2647,-279.559 87.1866,-269.689 92.5792,-260.701"/>
<polygon fill="grey" stroke="grey" points="95.5936,-262.48 97.7374,-252.104 89.5912,-258.879 95.5936,-262.48"/>
</g>
<!-- 5 -->
<g id="node6" class="node"><title>5</title>
<path fill="none" stroke="#56d882" stroke-width="2" d="M91.25,-468C91.25,-468 40.75,-468 40.75,-468 34.75,-468 28.75,-462 28.75,-456 28.75,-456 28.75,-444 28.75,-444 28.75,-438 34.75,-432 40.75,-432 40.75,-432 91.25,-432 91.25,-432 97.25,-432 103.25,-438 103.25,-444 103.25,-444 103.25,-456 103.25,-456 103.25,-462 97.25,-468 91.25,-468"/>
<text text-anchor="middle" x="66" y="-447.5" font-family="sans" font-size="10.00">select_pairs</text>
</g>
<!-- 5&#45;&gt;4 -->
<g id="edge6" class="edge"><title>5&#45;&gt;4</title>
<path fill="none" stroke="grey" stroke-width="2" d="M54.9538,-431.611C49.2634,-421.615 42.9193,-408.579 40,-396 36.383,-380.414 36.383,-375.586 40,-360 42.0983,-350.959 45.9658,-341.681 50.0881,-333.467"/>
<polygon fill="grey" stroke="grey" points="53.3142,-334.857 54.9538,-324.389 47.1446,-331.55 53.3142,-334.857"/>
</g>
<!-- 11 -->
<g id="node12" class="node"><title>11</title>
<path fill="none" stroke="#56d863" stroke-width="2" d="M162.25,-396C162.25,-396 61.75,-396 61.75,-396 55.75,-396 49.75,-390 49.75,-384 49.75,-384 49.75,-372 49.75,-372 49.75,-366 55.75,-360 61.75,-360 61.75,-360 162.25,-360 162.25,-360 168.25,-360 174.25,-366 174.25,-372 174.25,-372 174.25,-384 174.25,-384 174.25,-390 168.25,-396 162.25,-396"/>
<text text-anchor="middle" x="112" y="-375.5" font-family="sans" font-size="10.00">prep_flanking_spacers</text>
</g>
<!-- 5&#45;&gt;11 -->
<g id="edge15" class="edge"><title>5&#45;&gt;11</title>
<path fill="none" stroke="grey" stroke-width="2" d="M77.3708,-431.697C82.7185,-423.559 89.2043,-413.689 95.1106,-404.701"/>
<polygon fill="grey" stroke="grey" points="98.1932,-406.384 100.76,-396.104 92.3432,-402.539 98.1932,-406.384"/>
</g>
<!-- 6 -->
<g id="node7" class="node"><title>6</title>
<path fill="none" stroke="#bed856" stroke-width="2" d="M135.25,-540C135.25,-540 70.75,-540 70.75,-540 64.75,-540 58.75,-534 58.75,-528 58.75,-528 58.75,-516 58.75,-516 58.75,-510 64.75,-504 70.75,-504 70.75,-504 135.25,-504 135.25,-504 141.25,-504 147.25,-510 147.25,-516 147.25,-516 147.25,-528 147.25,-528 147.25,-534 141.25,-540 135.25,-540"/>
<text text-anchor="middle" x="103" y="-519.5" font-family="sans" font-size="10.00">evaluate_pairs</text>
</g>
<!-- 6&#45;&gt;5 -->
<g id="edge8" class="edge"><title>6&#45;&gt;5</title>
<path fill="none" stroke="grey" stroke-width="2" d="M93.8539,-503.697C89.5974,-495.644 84.4442,-485.894 79.7336,-476.982"/>
<polygon fill="grey" stroke="grey" points="82.8083,-475.31 75.0409,-468.104 76.6197,-478.581 82.8083,-475.31"/>
</g>
<!-- 7 -->
<g id="node8" class="node"><title>7</title>
<path fill="none" stroke="#d85656" stroke-width="2" d="M120,-612C120,-612 70,-612 70,-612 64,-612 58,-606 58,-600 58,-600 58,-588 58,-588 58,-582 64,-576 70,-576 70,-576 120,-576 120,-576 126,-576 132,-582 132,-588 132,-588 132,-600 132,-600 132,-606 126,-612 120,-612"/>
<text text-anchor="middle" x="95" y="-591.5" font-family="sans" font-size="10.00">make_pairs</text>
</g>
<!-- 7&#45;&gt;6 -->
<g id="edge10" class="edge"><title>7&#45;&gt;6</title>
<path fill="none" stroke="grey" stroke-width="2" d="M96.9775,-575.697C97.8591,-567.983 98.9186,-558.712 99.9014,-550.112"/>
<polygon fill="grey" stroke="grey" points="103.387,-550.437 101.045,-540.104 96.4323,-549.642 103.387,-550.437"/>
</g>
<!-- 8 -->
<g id="node9" class="node"><title>8</title>
<path fill="none" stroke="#d87556" stroke-width="2" d="M126.25,-684C126.25,-684 63.75,-684 63.75,-684 57.75,-684 51.75,-678 51.75,-672 51.75,-672 51.75,-660 51.75,-660 51.75,-654 57.75,-648 63.75,-648 63.75,-648 126.25,-648 126.25,-648 132.25,-648 138.25,-654 138.25,-660 138.25,-660 138.25,-672 138.25,-672 138.25,-678 132.25,-684 126.25,-684"/>
<text text-anchor="middle" x="95" y="-663.5" font-family="sans" font-size="10.00">design_probes</text>
</g>
<!-- 8&#45;&gt;5 -->
<g id="edge9" class="edge"><title>8&#45;&gt;5</title>
<path fill="none" stroke="grey" stroke-width="2" d="M74.1772,-647.615C64.542,-638.198 54.1149,-625.697 49,-612 32.2305,-567.095 45.3488,-510.568 55.9756,-477.833"/>
<polygon fill="grey" stroke="grey" points="59.3845,-478.68 59.2973,-468.085 52.7587,-476.422 59.3845,-478.68"/>
</g>
<!-- 8&#45;&gt;7 -->
<g id="edge12" class="edge"><title>8&#45;&gt;7</title>
<path fill="none" stroke="grey" stroke-width="2" d="M95,-647.697C95,-639.983 95,-630.712 95,-622.112"/>
<polygon fill="grey" stroke="grey" points="98.5001,-622.104 95,-612.104 91.5001,-622.104 98.5001,-622.104"/>
</g>
<!-- 10 -->
<g id="node11" class="node"><title>10</title>
<path fill="none" stroke="#d89556" stroke-width="2" d="M235.25,-612C235.25,-612 162.75,-612 162.75,-612 156.75,-612 150.75,-606 150.75,-600 150.75,-600 150.75,-588 150.75,-588 150.75,-582 156.75,-576 162.75,-576 162.75,-576 235.25,-576 235.25,-576 241.25,-576 247.25,-582 247.25,-588 247.25,-588 247.25,-600 247.25,-600 247.25,-606 241.25,-612 235.25,-612"/>
<text text-anchor="middle" x="199" y="-591.5" font-family="sans" font-size="10.00">prep_probe_files</text>
</g>
<!-- 8&#45;&gt;10 -->
<g id="edge14" class="edge"><title>8&#45;&gt;10</title>
<path fill="none" stroke="grey" stroke-width="2" d="M120.441,-647.876C133.787,-638.893 150.324,-627.763 164.778,-618.034"/>
<polygon fill="grey" stroke="grey" points="167.119,-620.677 173.461,-612.19 163.211,-614.87 167.119,-620.677"/>
</g>
<!-- 9 -->
<g id="node10" class="node"><title>9</title>
<path fill="none" stroke="#68d856" stroke-width="2" d="M132,-761.5C132,-761.5 58,-761.5 58,-761.5 52,-761.5 46,-755.5 46,-749.5 46,-749.5 46,-732.5 46,-732.5 46,-726.5 52,-720.5 58,-720.5 58,-720.5 132,-720.5 132,-720.5 138,-720.5 144,-726.5 144,-732.5 144,-732.5 144,-749.5 144,-749.5 144,-755.5 138,-761.5 132,-761.5"/>
<text text-anchor="middle" x="95" y="-749.5" font-family="sans" font-size="10.00">prep_target_files</text>
<text text-anchor="middle" x="95" y="-738.5" font-family="sans" font-size="10.00">in_file: example</text>
<text text-anchor="middle" x="95" y="-727.5" font-family="sans" font-size="10.00">target: example</text>
</g>
<!-- 9&#45;&gt;8 -->
<g id="edge13" class="edge"><title>9&#45;&gt;8</title>
<path fill="none" stroke="grey" stroke-width="2" d="M95,-720.437C95,-712.391 95,-702.933 95,-694.228"/>
<polygon fill="grey" stroke="grey" points="98.5001,-694.13 95,-684.13 91.5001,-694.13 98.5001,-694.13"/>
</g>
<!-- 10&#45;&gt;6 -->
<g id="edge11" class="edge"><title>10&#45;&gt;6</title>
<path fill="none" stroke="grey" stroke-width="2" d="M175.27,-575.697C163.063,-566.796 148.015,-555.823 134.816,-546.199"/>
<polygon fill="grey" stroke="grey" points="136.6,-543.168 126.457,-540.104 132.475,-548.824 136.6,-543.168"/>
</g>
<!-- 11&#45;&gt;4 -->
<g id="edge7" class="edge"><title>11&#45;&gt;4</title>
<path fill="none" stroke="grey" stroke-width="2" d="M100.629,-359.697C95.2815,-351.559 88.7957,-341.689 82.8894,-332.701"/>
<polygon fill="grey" stroke="grey" points="85.6568,-330.539 77.24,-324.104 79.8068,-334.384 85.6568,-330.539"/>
</g>
</g>
</svg>
