<?xml version="1.0" encoding="UTF-8" standalone="no"?>
<!DOCTYPE svg PUBLIC "-//W3C//DTD SVG 1.1//EN"
 "http://www.w3.org/Graphics/SVG/1.1/DTD/svg11.dtd">
<!-- Generated by graphviz version 2.30.1 (20201013.1554)
 -->
<!-- Title: snakemake_dag Pages: 1 -->
<svg width="255pt" height="836pt"
 viewBox="0.00 0.00 255.00 836.00" xmlns="http://www.w3.org/2000/svg" xmlns:xlink="http://www.w3.org/1999/xlink">
<g id="graph0" class="graph" transform="scale(1 1) rotate(0) translate(4 832)">
<title>snakemake_dag</title>
<polygon fill="white" stroke="white" points="-4,5 -4,-832 252,-832 252,5 -4,5"/>
<!-- 0 -->
<g id="node1" class="node"><title>0</title>
<path fill="none" stroke="#56d882" stroke-width="2" d="M81,-36C81,-36 51,-36 51,-36 45,-36 39,-30 39,-24 39,-24 39,-12 39,-12 39,-6 45,-0 51,-0 51,-0 81,-0 81,-0 87,-0 93,-6 93,-12 93,-12 93,-24 93,-24 93,-30 87,-36 81,-36"/>
<text text-anchor="middle" x="66" y="-15.5" font-family="sans" font-size="10.00">all</text>
</g>
<!-- 1 -->
<g id="node2" class="node"><title>1</title>
<path fill="none" stroke="#68d856" stroke-width="2" d="M100,-108C100,-108 32,-108 32,-108 26,-108 20,-102 20,-96 20,-96 20,-84 20,-84 20,-78 26,-72 32,-72 32,-72 100,-72 100,-72 106,-72 112,-78 112,-84 112,-84 112,-96 112,-96 112,-102 106,-108 100,-108"/>
<text text-anchor="middle" x="66" y="-87.5" font-family="sans" font-size="10.00">idt_order_sheet</text>
</g>
<!-- 1&#45;&gt;0 -->
<g id="edge1" class="edge"><title>1&#45;&gt;0</title>
<path fill="none" stroke="grey" stroke-width="2" d="M66,-71.6966C66,-63.9827 66,-54.7125 66,-46.1124"/>
<polygon fill="grey" stroke="grey" points="69.5001,-46.1043 66,-36.1043 62.5001,-46.1044 69.5001,-46.1043"/>
</g>
<!-- 2 -->
<g id="node3" class="node"><title>2</title>
<path fill="none" stroke="#56d0d8" stroke-width="2" d="M112,-180C112,-180 20,-180 20,-180 14,-180 8,-174 8,-168 8,-168 8,-156 8,-156 8,-150 14,-144 20,-144 20,-144 112,-144 112,-144 118,-144 124,-150 124,-156 124,-156 124,-168 124,-168 124,-174 118,-180 112,-180"/>
<text text-anchor="middle" x="66" y="-159.5" font-family="sans" font-size="10.00">merge_final_outputs</text>
</g>
<!-- 2&#45;&gt;1 -->
<g id="edge2" class="edge"><title>2&#45;&gt;1</title>
<path fill="none" stroke="grey" stroke-width="2" d="M66,-143.697C66,-135.983 66,-126.712 66,-118.112"/>
<polygon fill="grey" stroke="grey" points="69.5001,-118.104 66,-108.104 62.5001,-118.104 69.5001,-118.104"/>
</g>
<!-- 3 -->
<g id="node4" class="node"><title>3</title>
<path fill="none" stroke="#5673d8" stroke-width="2" d="M98.25,-252C98.25,-252 33.75,-252 33.75,-252 27.75,-252 21.75,-246 21.75,-240 21.75,-240 21.75,-228 21.75,-228 21.75,-222 27.75,-216 33.75,-216 33.75,-216 98.25,-216 98.25,-216 104.25,-216 110.25,-222 110.25,-228 110.25,-228 110.25,-240 110.25,-240 110.25,-246 104.25,-252 98.25,-252"/>
<text text-anchor="middle" x="66" y="-231.5" font-family="sans" font-size="10.00">filter_crosstalk</text>
</g>
<!-- 3&#45;&gt;2 -->
<g id="edge3" class="edge"><title>3&#45;&gt;2</title>
<path fill="none" stroke="grey" stroke-width="2" d="M66,-215.697C66,-207.983 66,-198.712 66,-190.112"/>
<polygon fill="grey" stroke="grey" points="69.5001,-190.104 66,-180.104 62.5001,-190.104 69.5001,-190.104"/>
</g>
<!-- 4 -->
<g id="node5" class="node"><title>4</title>
<path fill="none" stroke="#d87556" stroke-width="2" d="M150.25,-324C150.25,-324 65.75,-324 65.75,-324 59.75,-324 53.75,-318 53.75,-312 53.75,-312 53.75,-300 53.75,-300 53.75,-294 59.75,-288 65.75,-288 65.75,-288 150.25,-288 150.25,-288 156.25,-288 162.25,-294 162.25,-300 162.25,-300 162.25,-312 162.25,-312 162.25,-318 156.25,-324 150.25,-324"/>
<text text-anchor="middle" x="108" y="-303.5" font-family="sans" font-size="10.00">evaluate_crosstalk</text>
</g>
<!-- 4&#45;&gt;3 -->
<g id="edge5" class="edge"><title>4&#45;&gt;3</title>
<path fill="none" stroke="grey" stroke-width="2" d="M97.618,-287.697C92.7353,-279.559 86.8134,-269.689 81.4208,-260.701"/>
<polygon fill="grey" stroke="grey" points="84.4088,-258.879 76.2626,-252.104 78.4064,-262.48 84.4088,-258.879"/>
</g>
<!-- 5 -->
<g id="node6" class="node"><title>5</title>
<path fill="none" stroke="#88d856" stroke-width="2" d="M120.25,-396C120.25,-396 11.75,-396 11.75,-396 5.75,-396 -0.25,-390 -0.25,-384 -0.25,-384 -0.25,-372 -0.25,-372 -0.25,-366 5.75,-360 11.75,-360 11.75,-360 120.25,-360 120.25,-360 126.25,-360 132.25,-366 132.25,-372 132.25,-372 132.25,-384 132.25,-384 132.25,-390 126.25,-396 120.25,-396"/>
<text text-anchor="middle" x="66" y="-375.5" font-family="sans" font-size="10.00">select_flanking_spacers</text>
</g>
<!-- 5&#45;&gt;3 -->
<g id="edge4" class="edge"><title>5&#45;&gt;3</title>
<path fill="none" stroke="grey" stroke-width="2" d="M56.8694,-359.88C51.9925,-349.756 46.4925,-336.506 44,-324 40.8727,-308.309 40.8727,-303.691 44,-288 45.7915,-279.011 49.1367,-269.638 52.6874,-261.318"/>
<polygon fill="grey" stroke="grey" points="55.9164,-262.672 56.8694,-252.12 49.5441,-259.775 55.9164,-262.672"/>
</g>
<!-- 5&#45;&gt;4 -->
<g id="edge6" class="edge"><title>5&#45;&gt;4</title>
<path fill="none" stroke="grey" stroke-width="2" d="M76.382,-359.697C81.2647,-351.559 87.1866,-341.689 92.5792,-332.701"/>
<polygon fill="grey" stroke="grey" points="95.5936,-334.48 97.7374,-324.104 89.5912,-330.879 95.5936,-334.48"/>
</g>
<!-- 6 -->
<g id="node7" class="node"><title>6</title>
<path fill="none" stroke="#56b1d8" stroke-width="2" d="M91.25,-540C91.25,-540 40.75,-540 40.75,-540 34.75,-540 28.75,-534 28.75,-528 28.75,-528 28.75,-516 28.75,-516 28.75,-510 34.75,-504 40.75,-504 40.75,-504 91.25,-504 91.25,-504 97.25,-504 103.25,-510 103.25,-516 103.25,-516 103.25,-528 103.25,-528 103.25,-534 97.25,-540 91.25,-540"/>
<text text-anchor="middle" x="66" y="-519.5" font-family="sans" font-size="10.00">select_pairs</text>
</g>
<!-- 6&#45;&gt;5 -->
<g id="edge8" class="edge"><title>6&#45;&gt;5</title>
<path fill="none" stroke="grey" stroke-width="2" d="M54.9538,-503.611C49.2634,-493.615 42.9193,-480.579 40,-468 36.383,-452.414 36.383,-447.586 40,-432 42.0983,-422.959 45.9658,-413.681 50.0881,-405.467"/>
<polygon fill="grey" stroke="grey" points="53.3142,-406.857 54.9538,-396.389 47.1446,-403.55 53.3142,-406.857"/>
</g>
<!-- 12 -->
<g id="node13" class="node"><title>12</title>
<path fill="none" stroke="#9fd856" stroke-width="2" d="M162.25,-468C162.25,-468 61.75,-468 61.75,-468 55.75,-468 49.75,-462 49.75,-456 49.75,-456 49.75,-444 49.75,-444 49.75,-438 55.75,-432 61.75,-432 61.75,-432 162.25,-432 162.25,-432 168.25,-432 174.25,-438 174.25,-444 174.25,-444 174.25,-456 174.25,-456 174.25,-462 168.25,-468 162.25,-468"/>
<text text-anchor="middle" x="112" y="-447.5" font-family="sans" font-size="10.00">prep_flanking_spacers</text>
</g>
<!-- 6&#45;&gt;12 -->
<g id="edge16" class="edge"><title>6&#45;&gt;12</title>
<path fill="none" stroke="grey" stroke-width="2" d="M77.3708,-503.697C82.7185,-495.559 89.2043,-485.689 95.1106,-476.701"/>
<polygon fill="grey" stroke="grey" points="98.1932,-478.384 100.76,-468.104 92.3432,-474.539 98.1932,-478.384"/>
</g>
<!-- 7 -->
<g id="node8" class="node"><title>7</title>
<path fill="none" stroke="#d8d356" stroke-width="2" d="M135.25,-612C135.25,-612 70.75,-612 70.75,-612 64.75,-612 58.75,-606 58.75,-600 58.75,-600 58.75,-588 58.75,-588 58.75,-582 64.75,-576 70.75,-576 70.75,-576 135.25,-576 135.25,-576 141.25,-576 147.25,-582 147.25,-588 147.25,-588 147.25,-600 147.25,-600 147.25,-606 141.25,-612 135.25,-612"/>
<text text-anchor="middle" x="103" y="-591.5" font-family="sans" font-size="10.00">evaluate_pairs</text>
</g>
<!-- 7&#45;&gt;6 -->
<g id="edge10" class="edge"><title>7&#45;&gt;6</title>
<path fill="none" stroke="grey" stroke-width="2" d="M93.8539,-575.697C89.5974,-567.644 84.4442,-557.894 79.7336,-548.982"/>
<polygon fill="grey" stroke="grey" points="82.8083,-547.31 75.0409,-540.104 76.6197,-550.581 82.8083,-547.31"/>
</g>
<!-- 8 -->
<g id="node9" class="node"><title>8</title>
<path fill="none" stroke="#56d8a2" stroke-width="2" d="M120,-684C120,-684 70,-684 70,-684 64,-684 58,-678 58,-672 58,-672 58,-660 58,-660 58,-654 64,-648 70,-648 70,-648 120,-648 120,-648 126,-648 132,-654 132,-660 132,-660 132,-672 132,-672 132,-678 126,-684 120,-684"/>
<text text-anchor="middle" x="95" y="-663.5" font-family="sans" font-size="10.00">make_pairs</text>
</g>
<!-- 8&#45;&gt;7 -->
<g id="edge11" class="edge"><title>8&#45;&gt;7</title>
<path fill="none" stroke="grey" stroke-width="2" d="M96.9775,-647.697C97.8591,-639.983 98.9186,-630.712 99.9014,-622.112"/>
<polygon fill="grey" stroke="grey" points="103.387,-622.437 101.045,-612.104 96.4323,-621.642 103.387,-622.437"/>
</g>
<!-- 9 -->
<g id="node10" class="node"><title>9</title>
<path fill="none" stroke="#d85656" stroke-width="2" d="M126.25,-756C126.25,-756 63.75,-756 63.75,-756 57.75,-756 51.75,-750 51.75,-744 51.75,-744 51.75,-732 51.75,-732 51.75,-726 57.75,-720 63.75,-720 63.75,-720 126.25,-720 126.25,-720 132.25,-720 138.25,-726 138.25,-732 138.25,-732 138.25,-744 138.25,-744 138.25,-750 132.25,-756 126.25,-756"/>
<text text-anchor="middle" x="95" y="-735.5" font-family="sans" font-size="10.00">design_probes</text>
</g>
<!-- 9&#45;&gt;6 -->
<g id="edge9" class="edge"><title>9&#45;&gt;6</title>
<path fill="none" stroke="grey" stroke-width="2" d="M74.1772,-719.615C64.542,-710.198 54.1149,-697.697 49,-684 32.2305,-639.095 45.3488,-582.568 55.9756,-549.833"/>
<polygon fill="grey" stroke="grey" points="59.3845,-550.68 59.2973,-540.085 52.7587,-548.422 59.3845,-550.68"/>
</g>
<!-- 9&#45;&gt;8 -->
<g id="edge13" class="edge"><title>9&#45;&gt;8</title>
<path fill="none" stroke="grey" stroke-width="2" d="M95,-719.697C95,-711.983 95,-702.712 95,-694.112"/>
<polygon fill="grey" stroke="grey" points="98.5001,-694.104 95,-684.104 91.5001,-694.104 98.5001,-694.104"/>
</g>
<!-- 11 -->
<g id="node12" class="node"><title>11</title>
<path fill="none" stroke="#d8b456" stroke-width="2" d="M235.25,-684C235.25,-684 162.75,-684 162.75,-684 156.75,-684 150.75,-678 150.75,-672 150.75,-672 150.75,-660 150.75,-660 150.75,-654 156.75,-648 162.75,-648 162.75,-648 235.25,-648 235.25,-648 241.25,-648 247.25,-654 247.25,-660 247.25,-660 247.25,-672 247.25,-672 247.25,-678 241.25,-684 235.25,-684"/>
<text text-anchor="middle" x="199" y="-663.5" font-family="sans" font-size="10.00">prep_probe_files</text>
</g>
<!-- 9&#45;&gt;11 -->
<g id="edge15" class="edge"><title>9&#45;&gt;11</title>
<path fill="none" stroke="grey" stroke-width="2" d="M120.441,-719.876C133.787,-710.893 150.324,-699.763 164.778,-690.034"/>
<polygon fill="grey" stroke="grey" points="167.119,-692.677 173.461,-684.19 163.211,-686.87 167.119,-692.677"/>
</g>
<!-- 10 -->
<g id="node11" class="node"><title>10</title>
<path fill="none" stroke="#bed856" stroke-width="2" d="M132,-828C132,-828 58,-828 58,-828 52,-828 46,-822 46,-816 46,-816 46,-804 46,-804 46,-798 52,-792 58,-792 58,-792 132,-792 132,-792 138,-792 144,-798 144,-804 144,-804 144,-816 144,-816 144,-822 138,-828 132,-828"/>
<text text-anchor="middle" x="95" y="-807.5" font-family="sans" font-size="10.00">prep_target_files</text>
</g>
<!-- 10&#45;&gt;9 -->
<g id="edge14" class="edge"><title>10&#45;&gt;9</title>
<path fill="none" stroke="grey" stroke-width="2" d="M95,-791.697C95,-783.983 95,-774.712 95,-766.112"/>
<polygon fill="grey" stroke="grey" points="98.5001,-766.104 95,-756.104 91.5001,-766.104 98.5001,-766.104"/>
</g>
<!-- 11&#45;&gt;7 -->
<g id="edge12" class="edge"><title>11&#45;&gt;7</title>
<path fill="none" stroke="grey" stroke-width="2" d="M175.27,-647.697C163.063,-638.796 148.015,-627.823 134.816,-618.199"/>
<polygon fill="grey" stroke="grey" points="136.6,-615.168 126.457,-612.104 132.475,-620.824 136.6,-615.168"/>
</g>
<!-- 12&#45;&gt;5 -->
<g id="edge7" class="edge"><title>12&#45;&gt;5</title>
<path fill="none" stroke="grey" stroke-width="2" d="M100.629,-431.697C95.2815,-423.559 88.7957,-413.689 82.8894,-404.701"/>
<polygon fill="grey" stroke="grey" points="85.6568,-402.539 77.24,-396.104 79.8068,-406.384 85.6568,-402.539"/>
</g>
</g>
</svg>
